<svg width="110" height="120" viewBox="0 0 110 120" fill="none" xmlns="http://www.w3.org/2000/svg">
<path d="M30.5825 83.0263C34.4476 92.1659 48.5037 102.535 66.5989 102.535C84.6941 102.535 91.0199 95.8566 91.0199 84.7845C91.0199 71.6025 70.1141 68.2651 60.4505 65.2761C50.0839 62.2887 21.4478 57.1914 21.4478 33.2906C21.4478 10.7947 40.7734 0.600098 64.8429 0.600098C86.2777 0.600098 103.494 11.6722 107.887 23.9751L94.5335 32.234C91.3715 24.6767 78.8973 17.1195 63.0853 17.1195C48.1521 17.1195 40.0704 22.7443 40.0704 32.4098C40.0704 44.8885 59.396 47.8759 69.9367 50.8633C79.4229 53.8523 109.291 60.1788 109.291 84.0812C109.291 107.984 92.2486 119.056 64.8413 119.056C39.7189 119.056 22.8523 106.577 17.2312 92.1659L30.5825 83.0263Z" fill="#4965D7"/>
<path d="M33.7945 88.4683C33.7945 88.4683 38.8484 94.0997 45.0515 97.2015C45.0515 97.2015 36.8952 99.96 33.0665 110.609C33.0665 110.609 26.0112 106.597 20.6985 98.8105C20.6985 98.8105 32.4149 89.4453 33.7945 88.4683Z" fill="#16203F"/>
<path d="M18.1846 99.8541C8.22089 99.8541 0.114258 91.7445 0.114258 81.7772C0.114258 71.8098 8.22089 63.7002 18.1846 63.7002C28.1484 63.7002 36.255 71.8098 36.255 81.7772C36.255 91.7445 28.1484 99.8541 18.1846 99.8541ZM18.1846 75.0974C14.5019 75.0974 11.5073 78.0947 11.5073 81.7772C11.5073 85.4596 14.5036 88.4569 18.1846 88.4569C21.8657 88.4569 24.8636 85.4596 24.8636 81.7772C24.8636 78.0947 21.8674 75.0974 18.1846 75.0974Z" fill="#4965D7"/>
</svg>
